<?xml version="1.0" standalone="no"?><!DOCTYPE svg PUBLIC "-//W3C//DTD SVG 1.1//EN" "http://www.w3.org/Graphics/SVG/1.1/DTD/svg11.dtd"><svg t="1643524085601" class="icon" viewBox="0 0 1024 1024" version="1.1" xmlns="http://www.w3.org/2000/svg" p-id="2843" xmlns:xlink="http://www.w3.org/1999/xlink" width="128" height="128"><defs><style type="text/css"></style></defs><path d="M920 0H104a40 40 0 0 0-40 40v944a40 40 0 0 0 40 40h816a40 40 0 0 0 40-40V40a40 40 0 0 0-40-40z m0 984H104V40h816z" p-id="2844" fill="#4090EB"></path><path d="M196.54 549.73l118.08 204.51a50.94 50.94 0 0 0-7.42 26.56 51.2 51.2 0 0 0 51.2 51.2 51.15 51.15 0 0 0 44.33-25.6h231.34A51.15 51.15 0 0 0 678.4 832a51.2 51.2 0 0 0 51.2-51.2 50.94 50.94 0 0 0-7.42-26.56L840 550.17c1.58 0.15 3.18 0.23 4.8 0.23a51.2 51.2 0 0 0 51.2-51.2 51.2 51.2 0 0 0-51.2-51.2 51.21 51.21 0 0 0-11.56 1.33L722.18 257a50.94 50.94 0 0 0 7.42-26.56 51.2 51.2 0 0 0-51.2-51.2 51.15 51.15 0 0 0-44.33 25.6H402.73a51.15 51.15 0 0 0-44.33-25.6 51.2 51.2 0 0 0-51.2 51.2 50.94 50.94 0 0 0 7.42 26.56L204.31 448a51.19 51.19 0 0 0-50.71 51.2 51.2 51.2 0 0 0 42.94 50.53zM629.27 244.8a50.77 50.77 0 0 0 7.25 15L518.4 465.45 400.28 259.83a50.77 50.77 0 0 0 7.25-15zM407.53 766.4a50.77 50.77 0 0 0-7.25-15L518.4 545.75l118.12 205.62a50.77 50.77 0 0 0-7.25 15zM251.7 519.74h235.51L366.3 730.21a51.36 51.36 0 0 0-7.9-0.61 51.46 51.46 0 0 0-11.11 1.22L236.68 539.25a51.43 51.43 0 0 0 15.02-19.51zM678.4 729.6a51.36 51.36 0 0 0-7.9 0.61L549.59 519.74H797.9a51 51 0 0 0 6.9 11.4L689.51 730.82a51.46 51.46 0 0 0-11.11-1.22z m119-249.86H556.32L670.5 281a51.36 51.36 0 0 0 7.9 0.61 51.46 51.46 0 0 0 11.11-1.22l111.26 192.7a49.86 49.86 0 0 0-3.33 6.65z m-439-198.14a51.36 51.36 0 0 0 7.9-0.61l114.18 198.75H252.16a51.19 51.19 0 0 0-10.63-16.19l105.76-183.17a51.46 51.46 0 0 0 11.11 1.22z" p-id="2845" fill="#4090EB"></path></svg>