<?xml version="1.0" standalone="no"?><!DOCTYPE svg PUBLIC "-//W3C//DTD SVG 1.1//EN" "http://www.w3.org/Graphics/SVG/1.1/DTD/svg11.dtd"><svg t="1643523680037" class="icon" viewBox="0 0 1024 1024" version="1.1" xmlns="http://www.w3.org/2000/svg" p-id="1240" xmlns:xlink="http://www.w3.org/1999/xlink" width="128" height="128"><defs><style type="text/css"></style></defs><path d="M478.421708 878.27573l22.270612 43.782783L111.128977 922.058513 111.128977 0l770.645928 0 0 692.009292-46.782076-22.684308L834.992829 43.748308 157.945527 43.748308l0 834.527421L478.421708 878.27573zM259.645692 286.415244c-3.895633 3.654311-8.515234 6.688079-13.789853 9.032354C240.512271 297.826348 234.892906 299.515604 228.997744 300.687742L236.202942 334.059186l37.818672-8.170488 20.098711 93.012558 48.23001-10.445814L307.462007 247.01074 269.470963 255.284651c1.103188 6.688079 0.723967 12.65219-1.172137 17.892334S263.541326 282.726459 259.645692 286.415244zM496.107195 295.378649 455.28923 304.16968 446.463724 263.351715l-35.508871 7.653368 8.85998 40.886914L378.996869 320.648554l7.653368 35.508871 40.817965-8.825506 8.825506 40.817965 35.474397-7.653368-8.791031-40.886914 40.817965-8.825506L496.107195 295.378649zM553.714305 222.809548c-3.895633 3.619836-8.48076 6.653604-13.824328 9.032354-5.274619 2.344275-10.928458 4.102481-16.823621 5.240144l7.205198 33.371444 37.784197-8.170488 20.133185 93.012558 48.195536-10.445814-34.922802-161.444703-38.025519 8.170488c1.103188 6.757028 0.723967 12.721139-1.137663 17.926809C560.540282 214.708009 557.644413 219.120762 553.714305 222.809548zM803.896711 295.033902l-7.722318-35.474397-117.075851 25.373329 7.687843 35.474397L803.896711 295.033902zM666.997946 228.980507l7.722318 35.474397 117.110326-25.338855-7.687843-35.474397L666.997946 228.980507zM724.432684 663.360873l0-235.048042-111.628859 0 0 235.048042L612.803825 713.624886l0 49.471097-37.577349-77.016328-105.320001-0.275797 43.265663 88.703229-0.413696 0 27.889977 56.2626 3.585362 7.377571 0.034475 0 68.570043 138.691445 0 0.034475 46.196007 0 0 46.851025 207.64071 0 0-46.851025 46.196007 0 0-214.501161L724.432684 663.360873z" p-id="1241" fill="#4090EB"></path></svg>