<?xml version="1.0" standalone="no"?><!DOCTYPE svg PUBLIC "-//W3C//DTD SVG 1.1//EN" "http://www.w3.org/Graphics/SVG/1.1/DTD/svg11.dtd"><svg t="1643524023730" class="icon" viewBox="0 0 1024 1024" version="1.1" xmlns="http://www.w3.org/2000/svg" p-id="1885" xmlns:xlink="http://www.w3.org/1999/xlink" width="128" height="128"><defs><style type="text/css"></style></defs><path d="M680.306 128.417C804.55 252.66 827.504 439.834 749.171 587.331l231.846 231.854c17.183 17.183 17.183 45.042 0 62.225l-99.892 99.892c-17.183 17.183-45.042 17.183-62.225 0L586.96 749.368c-147.44 78.096-334.404 55.075-458.542-69.063C-6.731 545.157-22.03 335.543 82.523 183.535l0.01 0.006c3.703 9.568 9.363 18.554 16.979 26.34l0.622 0.63 271.115 271.115c30.48 30.48 79.897 30.48 110.377 0 30.176-30.175 30.477-78.912 0.906-109.458l-0.906-0.92-271.115-271.115c-7.925-7.925-17.13-13.79-26.949-17.593l-0.025-0.018c152.007-104.552 361.62-89.253 496.77 45.895z" fill="#4090EB" p-id="1886"></path></svg>